<svg xmlns="http://www.w3.org/2000/svg" viewBox="0 0 234.85 164.98"><defs><style>.cls-1{fill:#014283;}.cls-2{fill:#014284;}.cls-3{fill:#fefefe;}.cls-4{font-size:26.04px;}.cls-4,.cls-5{fill:#2a404e;font-family:LucidaHandwriting-Italic, Lucida Handwriting;font-style:italic;}.cls-5{font-size:8px;}</style></defs><g id="Слой_2" data-name="Слой 2"><g id="Слой_1-2" data-name="Слой 1"><path class="cls-1" d="M47.42,47.11c4.16,2.8,8.35,5.56,12.47,8.43A2.12,2.12,0,0,0,63,55.36a80.26,80.26,0,0,1,42.61-19.54,2.57,2.57,0,0,0,2.57-2.21c0-.06.33-1,.89-2.41,2.55-6.51,9.58-24.51,11.21-30.72a.65.65,0,0,1,.41-.48V2.57c0,37.75-3.52,75.49-3.45,113.23,0,1.79-.95,1.42-1.91,1.42H8.68A81.69,81.69,0,0,1,0,116.9L14.89,113c6.18-1.61,12.34-3.27,18.54-4.77a2.67,2.67,0,0,0,2.36-2.65,80.7,80.7,0,0,1,18-40.86c2.47-3,2.47-3,4.66.28,1.65,2.47,3.25,5,5,7.37A1.88,1.88,0,0,1,63.4,75a67.88,67.88,0,0,0-13,28.2c-.25,1.22-.06,1.47,1.16,1.22q21.51-4.29,43.05-8.52a1.37,1.37,0,0,0,.31-.11q-24.09-24-48.2-48Z"/><path class="cls-2" d="M187.21,47.4,138.79,95.77l12.35,2.46,30.72,6.07c2.36.47,2.4.47,1.87-1.93A67.33,67.33,0,0,0,171.1,75.25,2.19,2.19,0,0,1,171,72.1c2.1-2.93,4.08-5.95,6-9,.67-1,1.11-1.14,2-.15A79,79,0,0,1,198,102.57c.65,4,2,5.62,5.93,6.5,9.68,2.18,19.24,4.89,28.84,7.39.54.14,1.07.34,2.09.66H117.28c2-2,3.63-3.71,5.33-5.41,4.92-4.92,9.84-9.86,14.8-14.74a2.7,2.7,0,0,0,.87-2.89c-.81-3.65-1.38-7.35-2.21-11a2.12,2.12,0,0,1,1.12-2.66c7.42-4.91,14.77-9.92,22.2-14.81,1.35-.89,1.32-1.3.1-2.25A68.39,68.39,0,0,0,131,50a2,2,0,0,1-1.89-2c-.64-3.68-1.38-7.34-2.16-11-.27-1.29,0-1.52,1.34-1.34a81.11,81.11,0,0,1,43,19.64c1.14,1,1.9,1,3.1.21,4.13-2.86,8.33-5.63,12.5-8.43Z"/><path class="cls-3" d="M98.39,81.3,78.23,67.77C77.1,67,76,66.21,74.85,65.53s-1.4-1-.18-2A68.64,68.64,0,0,1,103.2,50c.56-.12,1.71-.82,1.39.81q-3,15-6,29.91C98.6,80.84,98.53,81,98.39,81.3Z"/><text class="cls-4" transform="translate(0 146.88) scale(1.07 1)">CASH COMPASS</text><text class="cls-5" transform="translate(17.25 162.37) scale(1.07 1)">WHERE YOUR FINANCIAL JOURNEY BEGINS</text></g></g></svg>